<?xml version="1.0" standalone="no"?>
<!DOCTYPE svg PUBLIC "-//W3C//DTD SVG 20010904//EN"
 "http://www.w3.org/TR/2001/REC-SVG-20010904/DTD/svg10.dtd">
<svg version="1.0" xmlns="http://www.w3.org/2000/svg"
 width="4266.000000pt" height="4266.000000pt" viewBox="0 0 4266.000000 4266.000000"
 preserveAspectRatio="xMidYMid meet">

<g transform="translate(0.000000,4266.000000) scale(0.100000,-0.100000)"
fill="#000000" stroke="none">
<path d="M20565 38760 c-479 -36 -917 -136 -1222 -280 l-103 -49 0 -123 c-1
-222 -20 -589 -40 -768 -163 -1435 -890 -2647 -2041 -3403 -333 -219 -728
-408 -1096 -524 -69 -21 -123 -43 -123 -50 0 -25 80 -180 139 -269 159 -238
382 -411 641 -498 161 -54 268 -70 465 -69 l170 0 395 131 c1631 540 1945 642
2177 707 366 104 432 118 521 110 345 -30 642 -263 751 -590 78 -235 59 -467
-57 -687 -97 -186 -435 -538 -1022 -1063 -722 -647 -1052 -973 -1370 -1355
-584 -702 -933 -1415 -1065 -2178 -45 -263 -58 -454 -52 -797 5 -326 18 -468
63 -730 132 -760 462 -1445 998 -2072 348 -407 663 -700 1451 -1348 641 -527
947 -800 1186 -1057 517 -559 780 -1063 876 -1678 26 -167 26 -632 -1 -815
-42 -293 -128 -569 -258 -829 -326 -650 -951 -1112 -1626 -1201 -308 -41 -790
-1 -1042 87 -111 39 -260 123 -260 147 0 3 60 7 133 7 157 2 284 22 425 69
458 154 779 512 857 959 19 113 19 323 0 446 -9 52 -29 140 -46 195 -189 611
-870 978 -1512 814 -480 -122 -881 -587 -1008 -1170 -33 -151 -33 -416 -1
-578 33 -161 82 -303 162 -466 117 -238 258 -433 465 -641 317 -319 588 -473
1030 -589 617 -162 1332 -163 2035 -3 379 86 862 258 1199 427 393 198 920
607 1237 961 566 633 940 1418 1074 2260 67 424 71 979 9 1480 -99 805 -355
1479 -759 1998 -95 124 -247 281 -355 367 l-87 70 99 12 c539 66 1101 351
1633 827 450 403 827 954 1002 1466 66 192 118 465 118 616 l0 64 -1922 1
-1923 1 530 175 c292 96 670 220 840 277 l310 102 3 3805 c3 3857 2 3979 -34
4299 -95 857 -382 1537 -844 1999 -553 553 -1337 894 -2280 991 -139 15 -694
21 -845 10z m-723 -3347 c85 -40 151 -106 191 -191 29 -61 32 -75 32 -167 0
-93 -2 -105 -33 -167 -41 -84 -128 -167 -209 -199 -45 -18 -78 -23 -148 -23
-70 0 -103 5 -148 23 -81 32 -168 115 -209 199 -31 62 -33 74 -33 167 0 91 3
106 31 165 34 73 105 150 168 182 73 38 118 48 206 45 72 -2 95 -7 152 -34z"/>
<path d="M17400 12751 c-447 -137 -646 -202 -648 -212 -1 -8 49 -89 113 -179
63 -90 125 -189 138 -219 l22 -56 0 -1855 c0 -1350 -3 -1928 -13 -2125 l-12
-270 22 -18 c192 -152 536 -304 843 -372 223 -50 365 -66 620 -72 192 -4 264
-2 359 11 570 80 1079 398 1383 864 274 418 373 968 268 1488 -94 464 -357
816 -736 982 -52 23 -144 54 -205 69 -99 25 -126 27 -299 28 -147 0 -209 -4
-275 -18 -263 -56 -550 -199 -798 -398 -47 -38 -89 -69 -94 -69 -4 0 -9 588
-10 1307 -3 1154 -5 1308 -18 1309 -8 1 -305 -87 -660 -195z m1128 -2551 c143
-18 296 -77 402 -155 65 -48 174 -162 221 -230 183 -269 263 -625 238 -1070
-36 -679 -274 -1090 -661 -1145 -266 -38 -497 150 -592 482 -50 173 -51 199
-51 1178 l0 914 40 9 c113 24 287 31 403 17z"/>
<path d="M5309 12924 c-15 -18 -17 -90 -3 -104 5 -5 43 -14 84 -20 199 -28
301 -85 361 -201 76 -151 92 -600 93 -2639 1 -1726 -6 -1943 -64 -2140 -50
-168 -149 -242 -368 -275 -53 -8 -100 -19 -106 -25 -14 -14 -12 -86 4 -105 11
-13 144 -15 1111 -15 l1098 0 15 22 c34 48 8 104 -52 113 -194 29 -277 61
-344 133 -119 127 -136 286 -145 1304 l-6 696 279 90 c366 119 1117 361 1569
506 198 64 364 116 368 116 11 0 8 -1794 -3 -2064 -12 -273 -32 -443 -60 -520
-59 -157 -151 -220 -365 -252 -107 -16 -125 -27 -125 -74 0 -14 7 -36 16 -48
l15 -22 1104 0 1104 0 15 22 c9 12 16 35 16 50 0 29 -34 73 -49 64 -5 -3 -48
1 -96 10 -283 49 -361 154 -395 534 -29 323 -35 2707 -9 3675 15 581 30 735
80 841 57 122 173 184 392 209 43 5 60 11 68 27 13 25 5 88 -13 100 -7 4 -509
8 -1115 8 l-1102 0 -15 -22 c-19 -27 -21 -68 -3 -91 8 -10 40 -20 95 -27 223
-30 329 -101 380 -256 41 -122 60 -454 69 -1234 l6 -555 -1099 -354 c-604
-195 -1105 -356 -1111 -358 -10 -4 -13 97 -13 483 0 834 23 1672 51 1902 29
239 132 334 402 372 66 9 90 17 97 30 15 27 12 62 -6 88 l-15 22 -1098 0
c-1003 0 -1100 -1 -1112 -16z"/>
<path d="M15563 12713 c-587 -179 -643 -198 -643 -218 0 -11 47 -87 104 -169
112 -159 141 -210 156 -284 7 -31 9 -780 8 -2202 -3 -1767 -6 -2162 -17 -2195
-21 -61 -67 -100 -136 -115 -33 -8 -66 -18 -72 -23 -16 -12 -17 -79 -1 -95 17
-17 1499 -17 1516 0 14 14 16 66 4 86 -5 7 -39 21 -75 31 -79 22 -102 40 -131
101 l-21 45 -3 2618 -2 2617 -23 -1 c-12 0 -311 -88 -664 -196z"/>
<path d="M27833 11182 c-468 -198 -633 -271 -633 -283 0 -9 29 -38 65 -64 79
-58 127 -115 163 -192 l27 -58 0 -1300 0 -1300 27 -80 c40 -117 92 -197 185
-285 103 -98 252 -176 413 -216 141 -35 388 -44 530 -20 371 65 731 310 985
671 119 170 114 187 -40 114 -198 -95 -427 -129 -675 -99 -179 21 -287 77
-337 172 l-28 53 -3 1078 -2 1077 453 0 c496 0 527 3 579 57 15 16 34 45 42
65 19 45 22 188 4 206 -9 9 -144 12 -545 12 l-533 0 0 318 c0 318 -3 344 -34
341 -6 0 -296 -121 -643 -267z"/>
<path d="M12570 10813 c-111 -12 -278 -49 -394 -87 -297 -98 -547 -255 -761
-478 -613 -638 -644 -1577 -74 -2254 286 -340 710 -558 1198 -614 130 -16 455
-8 566 13 414 78 768 265 1041 549 577 601 639 1489 151 2151 -256 349 -655
600 -1087 686 -58 11 -143 25 -190 31 -79 9 -372 11 -450 3z m322 -174 c79
-26 132 -63 204 -142 133 -146 243 -421 298 -747 40 -237 50 -380 50 -715 1
-326 -6 -438 -40 -655 -77 -488 -265 -785 -532 -841 -375 -77 -645 335 -739
1126 -24 209 -24 789 0 984 75 592 250 920 529 995 77 21 159 19 230 -5z"/>
<path d="M22465 10814 c-204 -31 -368 -81 -540 -164 -582 -282 -958 -830
-1026 -1497 -15 -143 -5 -400 19 -534 119 -643 549 -1083 1192 -1220 90 -20
136 -23 325 -23 195 -1 232 2 324 22 492 110 904 444 1096 889 46 106 51 131
31 139 -12 4 -41 -17 -99 -72 -179 -172 -351 -248 -592 -261 -554 -30 -993
271 -1165 798 -59 179 -102 512 -86 662 l8 67 813 0 c551 0 830 4 865 11 150
32 214 172 180 400 -47 328 -292 593 -657 713 -161 53 -253 67 -463 71 -107 2
-208 1 -225 -1z m279 -238 c126 -62 192 -208 217 -477 18 -197 3 -256 -75
-301 l-41 -23 -439 -3 -438 -3 6 48 c13 86 63 266 99 351 74 174 193 324 304
384 119 65 264 74 367 24z"/>
<path d="M31467 10804 c-784 -114 -1397 -685 -1544 -1439 -25 -128 -25 -445 0
-570 93 -471 361 -870 759 -1129 178 -116 416 -213 625 -255 289 -59 620 -56
887 8 651 156 1175 649 1340 1262 150 559 -2 1145 -409 1577 -283 300 -665
489 -1108 547 -145 19 -416 18 -550 -1z m435 -182 c323 -153 509 -732 510
-1587 1 -710 -113 -1157 -351 -1377 -181 -168 -423 -171 -594 -9 -196 185
-333 596 -378 1137 -16 192 -6 748 15 904 71 508 213 807 439 921 79 41 119
49 214 45 66 -3 95 -10 145 -34z"/>
<path d="M24858 10562 c-377 -148 -628 -252 -628 -260 0 -7 41 -82 91 -168 50
-85 102 -180 117 -212 l27 -57 0 -1085 c0 -894 -2 -1093 -14 -1133 -18 -64
-63 -102 -138 -118 -73 -15 -83 -23 -83 -65 0 -68 -59 -64 870 -64 l840 0 16
25 c18 28 12 93 -9 100 -7 3 -79 11 -161 19 -165 16 -187 25 -219 88 -10 20
-22 73 -27 119 -6 49 -10 523 -10 1120 l0 1036 45 32 c80 57 132 75 220 75
102 1 153 -21 289 -124 56 -41 130 -89 166 -105 59 -27 74 -30 170 -30 101 0
108 2 184 37 91 44 194 141 238 224 103 193 66 482 -82 634 -158 162 -464 179
-695 39 -143 -87 -296 -249 -448 -475 l-82 -123 -3 360 -2 359 -23 0 c-12 0
-304 -112 -649 -248z"/>
<path d="M34518 10557 c-466 -178 -628 -244 -628 -256 0 -9 44 -90 97 -181
156 -266 138 -102 141 -1285 2 -646 -1 -1051 -7 -1104 -18 -141 -49 -182 -161
-204 -63 -13 -65 -15 -68 -47 -2 -18 -1 -43 2 -56 l6 -24 745 0 c732 0 745 0
765 20 23 23 26 59 8 82 -7 8 -39 21 -71 27 -69 15 -117 53 -137 108 -12 32
-15 238 -18 1261 l-3 1222 28 11 c49 19 175 38 253 39 258 0 434 -143 524
-425 72 -229 78 -331 74 -1270 -3 -618 -7 -799 -17 -830 -20 -61 -66 -100
-136 -115 -33 -7 -66 -20 -72 -28 -16 -20 -17 -74 -1 -90 17 -17 1499 -17
1516 0 16 16 15 83 0 95 -7 5 -40 15 -73 23 -70 15 -116 54 -136 115 -10 32
-14 286 -19 1195 -6 998 -9 1165 -22 1225 -68 300 -221 516 -449 635 -120 62
-208 82 -369 82 -205 0 -314 -29 -545 -142 -155 -77 -273 -150 -442 -276
l-113 -84 0 248 c0 247 -4 274 -34 271 -6 -1 -293 -109 -638 -242z"/>
<path d="M19656 5639 c-331 -45 -576 -284 -639 -624 -61 -323 -4 -628 157
-842 92 -122 241 -214 410 -253 84 -20 115 -22 244 -17 215 7 343 50 484 162
243 194 348 625 247 1011 -72 277 -267 476 -534 544 -93 24 -270 33 -369 19z
m277 -244 c177 -46 298 -178 354 -385 26 -94 25 -388 0 -480 -44 -157 -148
-297 -260 -348 -154 -72 -363 -65 -497 16 -101 62 -186 187 -227 332 -25 92
-26 386 0 480 55 205 176 338 350 385 69 18 209 19 280 0z"/>
<path d="M7470 4771 l0 -851 338 0 c366 0 469 9 599 53 115 39 200 92 285 177
61 62 86 97 122 171 72 149 90 239 90 454 -1 162 -3 190 -27 277 -76 284 -257
466 -537 539 -79 21 -112 23 -477 26 l-393 4 0 -850z m764 599 c229 -58 355
-221 386 -497 20 -181 -17 -378 -94 -496 -62 -97 -151 -162 -276 -202 -43 -14
-103 -19 -282 -23 l-228 -4 0 621 0 621 208 0 c175 0 221 -3 286 -20z"/>
<path d="M9330 4770 l0 -850 630 0 630 0 0 115 0 115 -495 0 -495 0 0 260 0
260 375 0 375 0 0 110 0 110 -375 0 -375 0 0 250 0 250 480 0 480 0 0 115 0
115 -615 0 -615 0 0 -850z"/>
<path d="M10970 4770 l0 -850 135 0 135 0 2 368 3 367 373 3 372 2 0 115 0
115 -375 0 -375 0 0 250 0 250 480 0 480 0 0 115 0 115 -615 0 -615 0 0 -850z"/>
<path d="M12550 4770 l0 -850 135 0 135 0 0 850 0 850 -135 0 -135 0 0 -850z"/>
<path d="M13330 4770 l0 -850 126 0 126 0 -3 694 -4 694 36 -67 c20 -36 61
-113 92 -171 31 -58 200 -339 375 -625 l319 -520 162 -3 161 -2 0 850 0 850
-126 0 -127 0 5 -690 c2 -379 3 -690 2 -690 -1 0 -37 66 -79 148 -43 81 -227
391 -409 689 l-331 543 -162 0 -163 0 0 -850z"/>
<path d="M15230 4770 l0 -850 635 0 635 0 0 115 0 115 -497 2 -498 3 0 255 0
255 373 3 372 2 0 110 0 110 -372 2 -373 3 0 245 0 245 478 3 477 2 0 115 0
115 -615 0 -615 0 0 -850z"/>
<path d="M17403 5607 c3 -8 138 -244 301 -525 l296 -512 0 -325 0 -325 135 0
135 0 0 328 0 327 296 510 c163 281 299 516 301 523 4 9 -29 12 -145 12 l-150
0 -140 -252 c-77 -139 -170 -311 -208 -383 -37 -71 -73 -138 -80 -148 -10 -16
-20 -3 -79 110 -36 70 -135 251 -218 400 l-152 273 -149 0 c-119 0 -147 -3
-143 -13z"/>
<path d="M20992 5013 c4 -674 2 -650 73 -801 70 -148 221 -258 407 -296 103
-21 323 -21 426 0 187 38 330 141 402 289 76 154 74 129 78 808 l3 607 -135 0
-135 0 -3 -572 c-5 -621 -5 -623 -62 -736 -26 -51 -85 -111 -136 -137 -44 -23
-154 -45 -225 -45 -219 0 -344 90 -402 287 -15 51 -17 131 -21 631 l-3 572
-135 0 -135 0 3 -607z"/>
<path d="M22870 4770 l0 -850 135 0 135 0 0 340 0 340 187 -2 187 -3 214 -337
214 -338 154 0 c85 0 154 2 154 4 0 3 -101 161 -225 351 -124 191 -225 351
-225 356 0 5 6 9 13 9 31 0 143 65 193 112 103 97 145 202 145 358 1 214 -86
359 -265 445 -125 60 -177 65 -621 65 l-395 0 0 -850z m805 605 c77 -20 134
-59 165 -115 22 -40 25 -57 25 -150 0 -97 -2 -109 -28 -153 -63 -107 -136
-127 -459 -127 l-238 0 0 280 0 280 238 0 c180 0 252 -4 297 -15z"/>
<path d="M25440 4770 l0 -850 140 0 140 0 0 370 0 370 375 0 376 0 -3 113 -3
112 -372 3 -373 2 0 250 0 250 475 0 475 0 0 115 0 115 -615 0 -615 0 0 -850z"/>
<path d="M27002 5013 c4 -595 4 -610 26 -681 50 -164 145 -288 268 -350 129
-65 190 -77 394 -77 213 0 275 12 402 77 98 51 176 131 223 230 71 151 69 127
73 801 l3 607 -135 0 -135 0 -3 -572 c-5 -621 -5 -623 -62 -736 -26 -51 -85
-111 -136 -137 -44 -23 -154 -45 -225 -45 -219 0 -345 90 -402 287 -14 51 -17
132 -21 631 l-3 572 -135 0 -135 0 3 -607z"/>
<path d="M28700 5505 l0 -115 295 0 295 0 0 -735 0 -735 135 0 135 0 0 735 0
735 290 0 290 0 0 115 0 115 -720 0 -720 0 0 -115z"/>
<path d="M30454 5607 c-3 -8 -3 -274 -1 -593 5 -650 5 -655 77 -801 81 -165
208 -256 420 -299 105 -21 363 -15 455 11 174 48 293 142 364 286 74 151 76
167 76 824 l0 580 -137 3 -138 3 0 -558 c0 -603 -3 -641 -54 -741 -63 -125
-191 -192 -366 -192 -175 0 -303 67 -366 192 -51 100 -54 138 -54 741 l0 557
-135 0 c-104 0 -137 -3 -141 -13z"/>
<path d="M32330 4771 l0 -851 135 0 135 0 0 340 0 340 188 0 187 0 215 -340
215 -339 157 -1 158 0 -63 98 c-35 53 -139 213 -230 354 -92 142 -167 260
-167 263 0 3 6 5 13 5 7 0 45 16 85 35 231 111 322 379 221 650 -28 77 -137
189 -221 228 -126 60 -136 61 -600 65 l-428 3 0 -850z m857 590 c62 -27 115
-82 134 -137 7 -22 14 -73 14 -114 0 -41 -7 -92 -14 -114 -19 -55 -72 -110
-134 -137 -50 -23 -63 -24 -319 -27 l-268 -3 0 281 0 281 268 -3 c256 -3 269
-4 319 -27z"/>
<path d="M34070 4770 l0 -850 635 0 635 0 0 115 0 115 -497 2 -498 3 0 255 0
255 373 3 372 2 0 110 0 110 -372 2 -373 3 -3 248 -2 247 480 0 480 0 0 115 0
115 -615 0 -615 0 0 -850z"/>
</g>
</svg>
