<svg version="1.0" xmlns="http://www.w3.org/2000/svg" width="5688" height="5688" viewBox="0 0 4266 4266"><path d="M2056.5 390c-47.9 3.6-91.7 13.6-122.2 28l-10.3 4.9v12.3c-.1 22.2-2 58.9-4 76.8-16.3 143.5-89 264.7-204.1 340.3-33.3 21.9-72.8 40.8-109.6 52.4-6.9 2.1-12.3 4.3-12.3 5 0 2.5 8 18 13.9 26.9 15.9 23.8 38.2 41.1 64.1 49.8 16.1 5.4 26.8 7 46.5 6.9h17l39.5-13.1c163.1-54 194.5-64.2 217.7-70.7 36.6-10.4 43.2-11.8 52.1-11 34.5 3 64.2 26.3 75.1 59 7.8 23.5 5.9 46.7-5.7 68.7-9.7 18.6-43.5 53.8-102.2 106.3-72.2 64.7-105.2 97.3-137 135.5-58.4 70.2-93.3 141.5-106.5 217.8-4.5 26.3-5.8 45.4-5.2 79.7.5 32.6 1.8 46.8 6.3 73 13.2 76 46.2 144.5 99.8 207.2 34.8 40.7 66.3 70 145.1 134.8 64.1 52.7 94.7 80 118.6 105.7 51.7 55.9 78 106.3 87.6 167.8 2.6 16.7 2.6 63.2-.1 81.5-4.2 29.3-12.8 56.9-25.8 82.9-32.6 65-95.1 111.2-162.6 120.1-30.8 4.1-79 .1-104.2-8.7-11.1-3.9-26-12.3-26-14.7 0-.3 6-.7 13.3-.7 15.7-.2 28.4-2.2 42.5-6.9 45.8-15.4 77.9-51.2 85.7-95.9 1.9-11.3 1.9-32.3 0-44.6-.9-5.2-2.9-14-4.6-19.5-18.9-61.1-87-97.8-151.2-81.4-48 12.2-88.1 58.7-100.8 117-3.3 15.1-3.3 41.6-.1 57.8 3.3 16.1 8.2 30.3 16.2 46.6 11.7 23.8 25.8 43.3 46.5 64.1 31.7 31.9 58.8 47.3 103 58.9 61.7 16.2 133.2 16.3 203.5.3 37.9-8.6 86.2-25.8 119.9-42.7 39.3-19.8 92-60.7 123.7-96.1 56.6-63.3 94-141.8 107.4-226 6.7-42.4 7.1-97.9.9-148-9.9-80.5-35.5-147.9-75.9-199.8-9.5-12.4-24.7-28.1-35.5-36.7l-8.7-7 9.9-1.2c53.9-6.6 110.1-35.1 163.3-82.7 45-40.3 82.7-95.4 100.2-146.6 6.6-19.2 11.8-46.5 11.8-61.6v-6.4l-192.2-.1-192.3-.1 53-17.5c29.2-9.6 67-22 84-27.7l31-10.2.3-380.5c.3-385.7.2-397.9-3.4-429.9-9.5-85.7-38.2-153.7-84.4-199.9-55.3-55.3-133.7-89.4-228-99.1-13.9-1.5-69.4-2.1-84.5-1zm-72.3 334.7c8.5 4 15.1 10.6 19.1 19.1 2.9 6.1 3.2 7.5 3.2 16.7 0 9.3-.2 10.5-3.3 16.7-4.1 8.4-12.8 16.7-20.9 19.9-4.5 1.8-7.8 2.3-14.8 2.3-7 0-10.3-.5-14.8-2.3-8.1-3.2-16.8-11.5-20.9-19.9-3.1-6.2-3.3-7.4-3.3-16.7 0-9.1.3-10.6 3.1-16.5 3.4-7.3 10.5-15 16.8-18.2 7.3-3.8 11.8-4.8 20.6-4.5 7.2.2 9.5.7 15.2 3.4zM1740 2990.9c-44.7 13.7-64.6 20.2-64.8 21.2-.1.8 4.9 8.9 11.3 17.9 6.3 9 12.5 18.9 13.8 21.9l2.2 5.6V3243c0 135-.3 192.8-1.3 212.5l-1.2 27 2.2 1.8c19.2 15.2 53.6 30.4 84.3 37.2 22.3 5 36.5 6.6 62 7.2 19.2.4 26.4.2 35.9-1.1 57-8 107.9-39.8 138.3-86.4 27.4-41.8 37.3-96.8 26.8-148.8-9.4-46.4-35.7-81.6-73.6-98.2-5.2-2.3-14.4-5.4-20.5-6.9-9.9-2.5-12.6-2.7-29.9-2.8-14.7 0-20.9.4-27.5 1.8-26.3 5.6-55 19.9-79.8 39.8-4.7 3.8-8.9 6.9-9.4 6.9-.4 0-.9-58.8-1-130.7-.3-115.4-.5-130.8-1.8-130.9-.8-.1-30.5 8.7-66 19.5zm112.8 255.1c14.3 1.8 29.6 7.7 40.2 15.5 6.5 4.8 17.4 16.2 22.1 23 18.3 26.9 26.3 62.5 23.8 107-3.6 67.9-27.4 109-66.1 114.5-26.6 3.8-49.7-15-59.2-48.2-5-17.3-5.1-19.9-5.1-117.8v-91.4l4-.9c11.3-2.4 28.7-3.1 40.3-1.7zM530.9 2973.6c-1.5 1.8-1.7 9-.3 10.4.5.5 4.3 1.4 8.4 2 19.9 2.8 30.1 8.5 36.1 20.1 7.6 15.1 9.2 60 9.3 263.9.1 172.6-.6 194.3-6.4 214-5 16.8-14.9 24.2-36.8 27.5-5.3.8-10 1.9-10.6 2.5-1.4 1.4-1.2 8.6.4 10.5 1.1 1.3 14.4 1.5 111.1 1.5h109.8l1.5-2.2c3.4-4.8.8-10.4-5.2-11.3-19.4-2.9-27.7-6.1-34.4-13.3-11.9-12.7-13.6-28.6-14.5-130.4l-.6-69.6 27.9-9c36.6-11.9 111.7-36.1 156.9-50.6 19.8-6.4 36.4-11.6 36.8-11.6 1.1 0 .8 179.4-.3 206.4-1.2 27.3-3.2 44.3-6 52-5.9 15.7-15.1 22-36.5 25.2-10.7 1.6-12.5 2.7-12.5 7.4 0 1.4.7 3.6 1.6 4.8l1.5 2.2h220.8l1.5-2.2c.9-1.2 1.6-3.5 1.6-5 0-2.9-3.4-7.3-4.9-6.4-.5.3-4.8-.1-9.6-1-28.3-4.9-36.1-15.4-39.5-53.4-2.9-32.3-3.5-270.7-.9-367.5 1.5-58.1 3-73.5 8-84.1 5.7-12.2 17.3-18.4 39.2-20.9 4.3-.5 6-1.1 6.8-2.7 1.3-2.5.5-8.8-1.3-10-.7-.4-50.9-.8-111.5-.8H868.1l-1.5 2.2c-1.9 2.7-2.1 6.8-.3 9.1.8 1 4 2 9.5 2.7 22.3 3 32.9 10.1 38 25.6 4.1 12.2 6 45.4 6.9 123.4l.6 55.5-109.9 35.4c-60.4 19.5-110.5 35.6-111.1 35.8-1 .4-1.3-9.7-1.3-48.3 0-83.4 2.3-167.2 5.1-190.2 2.9-23.9 13.2-33.4 40.2-37.2 6.6-.9 9-1.7 9.7-3 1.5-2.7 1.2-6.2-.6-8.8l-1.5-2.2H642.1c-100.3 0-110 .1-111.2 1.6zM1556.3 2994.7c-58.7 17.9-64.3 19.8-64.3 21.8 0 1.1 4.7 8.7 10.4 16.9 11.2 15.9 14.1 21 15.6 28.4.7 3.1.9 78 .8 220.2-.3 176.7-.6 216.2-1.7 219.5-2.1 6.1-6.7 10-13.6 11.5-3.3.8-6.6 1.8-7.2 2.3-1.6 1.2-1.7 7.9-.1 9.5 1.7 1.7 149.9 1.7 151.6 0 1.4-1.4 1.6-6.6.4-8.6-.5-.7-3.9-2.1-7.5-3.1-7.9-2.2-10.2-4-13.1-10.1l-2.1-4.5-.3-261.8-.2-261.7-2.3.1c-1.2 0-31.1 8.8-66.4 19.6zM2783.3 3147.8c-46.8 19.8-63.3 27.1-63.3 28.3 0 .9 2.9 3.8 6.5 6.4 7.9 5.8 12.7 11.5 16.3 19.2l2.7 5.8v260l2.7 8c4 11.7 9.2 19.7 18.5 28.5 10.3 9.8 25.2 17.6 41.3 21.6 14.1 3.5 38.8 4.4 53 2 37.1-6.5 73.1-31 98.5-67.1 11.9-17 11.4-18.7-4-11.4-19.8 9.5-42.7 12.9-67.5 9.9-17.9-2.1-28.7-7.7-33.7-17.2l-2.8-5.3-.3-107.8-.2-107.7h45.3c49.6 0 52.7-.3 57.9-5.7 1.5-1.6 3.4-4.5 4.2-6.5 1.9-4.5 2.2-18.8.4-20.6-.9-.9-14.4-1.2-54.5-1.2H2851v-31.8c0-31.8-.3-34.4-3.4-34.1-.6 0-29.6 12.1-64.3 26.7z"/><path d="M1257 3184.7c-11.1 1.2-27.8 4.9-39.4 8.7-29.7 9.8-54.7 25.5-76.1 47.8-61.3 63.8-64.4 157.7-7.4 225.4 28.6 34 71 55.8 119.8 61.4 13 1.6 45.5.8 56.6-1.3 41.4-7.8 76.8-26.5 104.1-54.9 57.7-60.1 63.9-148.9 15.1-215.1-25.6-34.9-65.5-60-108.7-68.6-5.8-1.1-14.3-2.5-19-3.1-7.9-.9-37.2-1.1-45-.3zm32.2 17.4c7.9 2.6 13.2 6.3 20.4 14.2 13.3 14.6 24.3 42.1 29.8 74.7 4 23.7 5 38 5 71.5.1 32.6-.6 43.8-4 65.5-7.7 48.8-26.5 78.5-53.2 84.1-37.5 7.7-64.5-33.5-73.9-112.6-2.4-20.9-2.4-78.9 0-98.4 7.5-59.2 25-92 52.9-99.5 7.7-2.1 15.9-1.9 23 .5zM2246.5 3184.6c-20.4 3.1-36.8 8.1-54 16.4-58.2 28.2-95.8 83-102.6 149.7-1.5 14.3-.5 40 1.9 53.4 11.9 64.3 54.9 108.3 119.2 122 9 2 13.6 2.3 32.5 2.3 19.5.1 23.2-.2 32.4-2.2 49.2-11 90.4-44.4 109.6-88.9 4.6-10.6 5.1-13.1 3.1-13.9-1.2-.4-4.1 1.7-9.9 7.2-17.9 17.2-35.1 24.8-59.2 26.1-55.4 3-99.3-27.1-116.5-79.8-5.9-17.9-10.2-51.2-8.6-66.2l.8-6.7h81.3c55.1 0 83-.4 86.5-1.1 15-3.2 21.4-17.2 18-40-4.7-32.8-29.2-59.3-65.7-71.3-16.1-5.3-25.3-6.7-46.3-7.1-10.7-.2-20.8-.1-22.5.1zm27.9 23.8c12.6 6.2 19.2 20.8 21.7 47.7 1.8 19.7.3 25.6-7.5 30.1l-4.1 2.3-43.9.3-43.8.3.6-4.8c1.3-8.6 6.3-26.6 9.9-35.1 7.4-17.4 19.3-32.4 30.4-38.4 11.9-6.5 26.4-7.4 36.7-2.4zM3146.7 3185.6c-78.4 11.4-139.7 68.5-154.4 143.9-2.5 12.8-2.5 44.5 0 57 9.3 47.1 36.1 87 75.9 112.9 17.8 11.6 41.6 21.3 62.5 25.5 28.9 5.9 62 5.6 88.7-.8 65.1-15.6 117.5-64.9 134-126.2 15-55.9-.2-114.5-40.9-157.7-28.3-30-66.5-48.9-110.8-54.7-14.5-1.9-41.6-1.8-55 .1zm43.5 18.2c32.3 15.3 50.9 73.2 51 158.7.1 71-11.3 115.7-35.1 137.7-18.1 16.8-42.3 17.1-59.4.9-19.6-18.5-33.3-59.6-37.8-113.7-1.6-19.2-.6-74.8 1.5-90.4 7.1-50.8 21.3-80.7 43.9-92.1 7.9-4.1 11.9-4.9 21.4-4.5 6.6.3 9.5 1 14.5 3.4zM2485.8 3209.8c-37.7 14.8-62.8 25.2-62.8 26 0 .7 4.1 8.2 9.1 16.8 5 8.5 10.2 18 11.7 21.2l2.7 5.7V3388c0 89.4-.2 109.3-1.4 113.3-1.8 6.4-6.3 10.2-13.8 11.8-7.3 1.5-8.3 2.3-8.3 6.5 0 6.8-5.9 6.4 87 6.4h84l1.6-2.5c1.8-2.8 1.2-9.3-.9-10-.7-.3-7.9-1.1-16.1-1.9-16.5-1.6-18.7-2.5-21.9-8.8-1-2-2.2-7.3-2.7-11.9-.6-4.9-1-52.3-1-112v-103.6l4.5-3.2c8-5.7 13.2-7.5 22-7.5 10.2-.1 15.3 2.1 28.9 12.4 5.6 4.1 13 8.9 16.6 10.5 5.9 2.7 7.4 3 17 3 10.1 0 10.8-.2 18.4-3.7 9.1-4.4 19.4-14.1 23.8-22.4 10.3-19.3 6.6-48.2-8.2-63.4-15.8-16.2-46.4-17.9-69.5-3.9-14.3 8.7-29.6 24.9-44.8 47.5l-8.2 12.3-.3-36-.2-35.9h-2.3c-1.2 0-30.4 11.2-64.9 24.8zM3451.8 3210.3c-46.6 17.8-62.8 24.4-62.8 25.6 0 .9 4.4 9 9.7 18.1 15.6 26.6 13.8 10.2 14.1 128.5.2 64.6-.1 105.1-.7 110.4-1.8 14.1-4.9 18.2-16.1 20.4-6.3 1.3-6.5 1.5-6.8 4.7-.2 1.8-.1 4.3.2 5.6l.6 2.4h74.5c73.2 0 74.5 0 76.5-2 2.3-2.3 2.6-5.9.8-8.2-.7-.8-3.9-2.1-7.1-2.7-6.9-1.5-11.7-5.3-13.7-10.8-1.2-3.2-1.5-23.8-1.8-126.1l-.3-122.2 2.8-1.1c4.9-1.9 17.5-3.8 25.3-3.9 25.8 0 43.4 14.3 52.4 42.5 7.2 22.9 7.8 33.1 7.4 127-.3 61.8-.7 79.9-1.7 83-2 6.1-6.6 10-13.6 11.5-3.3.7-6.6 2-7.2 2.8-1.6 2-1.7 7.4-.1 9 1.7 1.7 149.9 1.7 151.6 0 1.6-1.6 1.5-8.3 0-9.5-.7-.5-4-1.5-7.3-2.3-7-1.5-11.6-5.4-13.6-11.5-1-3.2-1.4-28.6-1.9-119.5-.6-99.8-.9-116.5-2.2-122.5-6.8-30-22.1-51.6-44.9-63.5-12-6.2-20.8-8.2-36.9-8.2-20.5 0-31.4 2.9-54.5 14.2-15.5 7.7-27.3 15-44.2 27.6l-11.3 8.4v-24.8c0-24.7-.4-27.4-3.4-27.1-.6.1-29.3 10.9-63.8 24.2zM1965.6 3702.1c-33.1 4.5-57.6 28.4-63.9 62.4-6.1 32.3-.4 62.8 15.7 84.2 9.2 12.2 24.1 21.4 41 25.3 8.4 2 11.5 2.2 24.4 1.7 21.5-.7 34.3-5 48.4-16.2 24.3-19.4 34.8-62.5 24.7-101.1-7.2-27.7-26.7-47.6-53.4-54.4-9.3-2.4-27-3.3-36.9-1.9zm27.7 24.4c17.7 4.6 29.8 17.8 35.4 38.5 2.6 9.4 2.5 38.8 0 48-4.4 15.7-14.8 29.7-26 34.8-15.4 7.2-36.3 6.5-49.7-1.6-10.1-6.2-18.6-18.7-22.7-33.2-2.5-9.2-2.6-38.6 0-48 5.5-20.5 17.6-33.8 35-38.5 6.9-1.8 20.9-1.9 28 0zM747 3788.9v85.1h33.8c36.6 0 46.9-.9 59.9-5.3 11.5-3.9 20-9.2 28.5-17.7 6.1-6.2 8.6-9.7 12.2-17.1 7.2-14.9 9-23.9 9-45.4-.1-16.2-.3-19-2.7-27.7-7.6-28.4-25.7-46.6-53.7-53.9-7.9-2.1-11.2-2.3-47.7-2.6l-39.3-.4v85zm76.4-59.9c22.9 5.8 35.5 22.1 38.6 49.7 2 18.1-1.7 37.8-9.4 49.6-6.2 9.7-15.1 16.2-27.6 20.2-4.3 1.4-10.3 1.9-28.2 2.3l-22.8.4V3727h20.8c17.5 0 22.1.3 28.6 2zM933 3789v85h126v-23h-99v-52h75v-22h-75v-50h96v-23H933v85zM1097 3789v85h27l.2-36.8.3-36.7 37.3-.3 37.2-.2v-23h-75v-50h96v-23h-123v85zM1255 3789v85h27v-170h-27v85zM1333 3789v85h25.2l-.3-69.4-.4-69.4 3.6 6.7c2 3.6 6.1 11.3 9.2 17.1 3.1 5.8 20 33.9 37.5 62.5l31.9 52 16.2.3 16.1.2v-170H1446.7l.5 69c.2 37.9.3 69 .2 69-.1 0-3.7-6.6-7.9-14.8-4.3-8.1-22.7-39.1-40.9-68.9l-33.1-54.3H1333v85zM1523 3789v85h127v-23l-49.7-.2-49.8-.3v-51l37.3-.3 37.2-.2v-22l-37.2-.2-37.3-.3v-49l47.8-.3 47.7-.2v-23h-123v85zM1740.3 3705.3c.3.8 13.8 24.4 30.1 52.5l29.6 51.2v65h27v-65.5l29.6-51c16.3-28.1 29.9-51.6 30.1-52.3.4-.9-2.9-1.2-14.5-1.2h-15l-14 25.2c-7.7 13.9-17 31.1-20.8 38.3-3.7 7.1-7.3 13.8-8 14.8-1 1.6-2 .3-7.9-11-3.6-7-13.5-25.1-21.8-40l-15.2-27.3h-14.9c-11.9 0-14.7.3-14.3 1.3zM2099.2 3764.7c.4 67.4.2 65 7.3 80.1 7 14.8 22.1 25.8 40.7 29.6 10.3 2.1 32.3 2.1 42.6 0 18.7-3.8 33-14.1 40.2-28.9 7.6-15.4 7.4-12.9 7.8-80.8l.3-60.7h-27l-.3 57.2c-.5 62.1-.5 62.3-6.2 73.6-2.6 5.1-8.5 11.1-13.6 13.7-4.4 2.3-15.4 4.5-22.5 4.5-21.9 0-34.4-9-40.2-28.7-1.5-5.1-1.7-13.1-2.1-63.1l-.3-57.2h-27l.3 60.7zM2287 3789v85h27v-68l18.7.2 18.7.3 21.4 33.7 21.4 33.8h15.4c8.5 0 15.4-.2 15.4-.4 0-.3-10.1-16.1-22.5-35.1-12.4-19.1-22.5-35.1-22.5-35.6s.6-.9 1.3-.9c3.1 0 14.3-6.5 19.3-11.2 10.3-9.7 14.5-20.2 14.5-35.8.1-21.4-8.6-35.9-26.5-44.5-12.5-6-17.7-6.5-62.1-6.5H2287v85zm80.5-60.5c7.7 2 13.4 5.9 16.5 11.5 2.2 4 2.5 5.7 2.5 15 0 9.7-.2 10.9-2.8 15.3-6.3 10.7-13.6 12.7-45.9 12.7H2314v-56h23.8c18 0 25.2.4 29.7 1.5zM2544 3789v85h28v-74h75.1l-.3-11.3-.3-11.2-37.2-.3-37.3-.2v-50h95v-23h-123v85zM2700.2 3764.7c.4 59.5.4 61 2.6 68.1 5 16.4 14.5 28.8 26.8 35 12.9 6.5 19 7.7 39.4 7.7 21.3 0 27.5-1.2 40.2-7.7 9.8-5.1 17.6-13.1 22.3-23 7.1-15.1 6.9-12.7 7.3-80.1l.3-60.7h-27l-.3 57.2c-.5 62.1-.5 62.3-6.2 73.6-2.6 5.1-8.5 11.1-13.6 13.7-4.4 2.3-15.4 4.5-22.5 4.5-21.9 0-34.5-9-40.2-28.7-1.4-5.1-1.7-13.2-2.1-63.1l-.3-57.2h-27l.3 60.7zM2870 3715.5v11.5h59v147h27v-147h58v-23h-144v11.5zM3045.4 3705.3c-.3.8-.3 27.4-.1 59.3.5 65 .5 65.5 7.7 80.1 8.1 16.5 20.8 25.6 42 29.9 10.5 2.1 36.3 1.5 45.5-1.1 17.4-4.8 29.3-14.2 36.4-28.6 7.4-15.1 7.6-16.7 7.6-82.4v-58l-13.7-.3-13.8-.3v55.8c0 60.3-.3 64.1-5.4 74.1-6.3 12.5-19.1 19.2-36.6 19.2s-30.3-6.7-36.6-19.2c-5.1-10-5.4-13.8-5.4-74.1V3704h-13.5c-10.4 0-13.7.3-14.1 1.3zM3233 3788.9v85.1h27v-68h37.5l21.5 34 21.5 33.9 15.7.1h15.8l-6.3-9.8c-3.5-5.3-13.9-21.3-23-35.4-9.2-14.2-16.7-26-16.7-26.3 0-.3.6-.5 1.3-.5.7 0 4.5-1.6 8.5-3.5 23.1-11.1 32.2-37.9 22.1-65-2.8-7.7-13.7-18.9-22.1-22.8-12.6-6-13.6-6.1-60-6.5l-42.8-.3v85zm85.7-59c6.2 2.7 11.5 8.2 13.4 13.7.7 2.2 1.4 7.3 1.4 11.4 0 4.1-.7 9.2-1.4 11.4-1.9 5.5-7.2 11-13.4 13.7-5 2.3-6.3 2.4-31.9 2.7l-26.8.3v-56.2l26.8.3c25.6.3 26.9.4 31.9 2.7zM3407 3789v85h127v-23l-49.7-.2-49.8-.3v-51l37.3-.3 37.2-.2v-22l-37.2-.2-37.3-.3-.3-24.8-.2-24.7h96v-23h-123v85z"/></svg>